<svg width="175" height="138" viewBox="0 0 175 138" fill="none" xmlns="http://www.w3.org/2000/svg">
<path d="M76 20C76 13.6667 76.5 1.09999 78.5 1.49999C81 1.99999 76 20 78.5 20C79.1666 14 80.8 2.1 82 2.5C83.5 3 79 23.5 80.5 24C82 24.5 84.5 1.5 84.5 4C84.5 6.5 85 24 87 22C89 20 89 0 89.5 0M121 23C121 16.6667 121.5 4.09999 123.5 4.49999C126 4.99999 121 23 123.5 23C124.167 17 125.8 5.1 127 5.5C128.5 6 124 26.5 125.5 27C127 27.5 129.5 4.5 129.5 7C129.5 9.5 130 27 132 25C134 23 134 3 134.5 3M155 32.995C155 28.2466 155.519 18.8247 157.593 19.1246C160.185 19.4995 155 32.995 157.593 32.995C158.284 28.4965 159.978 19.5745 161.222 19.8744C162.778 20.2492 158.111 35.6191 159.667 35.994C161.222 36.3688 163.815 19.1246 163.815 20.999C163.815 22.8734 164.333 35.994 166.407 34.4945C168.481 32.995 168.481 18 169 18M69 97.1602C69 91.0928 69.3703 79.0538 70.8518 79.437C72.7037 79.916 69 97.1602 70.8518 97.1602C71.3457 91.4122 72.5555 80.0118 73.4444 80.395C74.5555 80.874 71.2222 100.513 72.3333 100.992C73.4444 101.471 75.2963 79.437 75.2963 81.832C75.2963 84.2271 75.6666 100.992 77.1481 99.0763C78.6296 97.1602 78.6296 78 79 78M102.45 44.8036C102.876 51.3849 103.277 64.4722 101.476 64.1713C99.2248 63.7952 102.45 44.8036 100.232 44.9471C100.044 51.2202 99.3955 63.6798 98.3042 63.333C96.94 62.8995 99.5535 41.3388 98.1894 40.9053C96.8252 40.4718 96.1538 64.5156 95.9858 61.9178C95.8177 59.3199 94.1977 41.1635 92.5581 43.3566C90.9185 45.5497 92.263 66.3326 91.8195 66.3613M35.2444 86.165C35.6702 92.7462 36.0715 105.834 34.2705 105.533C32.0193 105.157 35.2444 86.165 33.0268 86.3084C32.8388 92.5816 32.19 105.041 31.0987 104.694C29.7345 104.261 32.348 82.7001 30.9838 82.2666C29.6197 81.8331 28.9483 105.877 28.7803 103.279C28.6122 100.681 26.9922 82.5249 25.3526 84.7179C23.713 86.911 25.0575 107.694 24.614 107.723M11.2444 114.165C11.6702 120.746 12.0715 133.834 10.2705 133.533C8.01934 133.157 11.2444 114.165 9.02683 114.308C8.83884 120.582 8.19002 133.041 7.09869 132.694C5.73452 132.261 8.34801 110.7 6.98385 110.267C5.61968 109.833 4.94833 133.877 4.78026 131.279C4.61219 128.681 2.99219 110.525 1.35258 112.718C-0.287036 114.911 1.05752 135.694 0.614 135.723M54.2444 111.165C54.6702 117.746 55.0715 130.834 53.2705 130.533C51.0193 130.157 54.2444 111.165 52.0268 111.308C51.8388 117.582 51.19 130.041 50.0987 129.694C48.7345 129.261 51.348 107.7 49.9838 107.267C48.6197 106.833 47.9483 130.877 47.7803 128.279C47.6122 125.681 45.9922 107.525 44.3526 109.718C42.713 111.911 44.0575 132.694 43.614 132.723M92.2444 116.165C92.6702 122.746 93.0715 135.834 91.2705 135.533C89.0193 135.157 92.2444 116.165 90.0268 116.308C89.8388 122.582 89.19 135.041 88.0987 134.694C86.7345 134.261 89.348 112.7 87.9838 112.267C86.6197 111.833 85.9483 135.877 85.7803 133.279C85.6122 130.681 83.9922 112.525 82.3526 114.718C80.713 116.911 82.0575 137.694 81.614 137.723M119.024 87.9043C118.411 95.0518 116.597 109.183 114.253 108.527C111.322 107.707 119.024 87.9043 116.045 87.6485C114.669 94.3517 111.57 107.614 110.179 107.04C108.44 106.323 115.788 83.6474 114.049 82.9297C112.31 82.212 107.103 107.913 107.345 105.092C107.588 102.27 108.687 82.4694 106.11 84.522C103.533 86.5745 101.596 109.146 101 109.094M130.417 71.8818C130.285 64.7092 130.489 50.4687 132.363 50.8874C134.705 51.4108 130.417 71.8818 132.748 71.8389C133.245 65.0324 134.52 51.5275 135.648 51.9599C137.057 52.5005 133.287 75.7942 134.697 76.3347C136.106 76.8752 137.958 50.7845 138.01 53.6158C138.063 56.4471 138.893 76.2575 140.717 73.9582C142.54 71.6588 142.124 49.0086 142.59 49M162.417 85.8818C162.285 78.7092 162.489 64.4687 164.363 64.8874C166.705 65.4108 162.417 85.8818 164.748 85.8389C165.245 79.0324 166.52 65.5275 167.648 65.9599C169.057 66.5004 165.287 89.7942 166.697 90.3347C168.106 90.8752 169.958 64.7845 170.01 67.6158C170.063 70.4471 170.893 90.2575 172.717 87.9582C174.54 85.6588 174.124 63.0086 174.59 63M50.5723 70.8019C50.3911 63.3571 50.4758 48.5742 52.2645 49.0011C54.5003 49.5348 50.5723 70.8019 52.7939 70.7478C53.2146 63.6804 54.3255 49.6567 55.4033 50.1009C56.7505 50.6562 53.3384 74.8512 54.6856 75.4065C56.0329 75.9618 57.5962 48.8713 57.6678 51.8101C57.7393 54.7488 58.6844 75.3092 60.4045 72.9149C62.1245 70.5206 61.5521 47.0107 61.9964 46.9999" stroke="#332623" stroke-width="1.5"/>
</svg>
