<svg width="126" height="322" viewBox="0 0 126 322" fill="none" xmlns="http://www.w3.org/2000/svg">
<path d="M0.583208 0C13.2194 4.89468 51.6723 19.5088 57.7376 26.2215C65.3193 34.6124 98.5622 57.1629 112.559 90.202C126.556 123.241 134.721 146.316 110.81 210.821C91.6804 262.425 28.966 289.311 0 296.303M8.74813 15.7329C17.8851 17.8306 39.4249 25.1726 52.4888 37.759C68.8186 53.4919 93.3134 69.2248 96.2294 83.3844C99.1454 97.544 105.561 123.765 109.06 127.961C112.559 132.156 123.64 169.391 120.141 200.857C116.642 232.322 82.8156 261.166 71.7346 270.081C62.8699 277.214 21.3843 298.925 1.16642 308.889M8.74813 27.7948C13.025 28.494 25.1946 32.4098 39.6582 42.4788C57.7376 55.0651 54.8216 48.772 62.9865 55.5896C71.1514 62.4072 84.5652 77.0912 90.3973 90.202C96.2294 103.313 124.223 137.925 116.642 182.502C109.06 227.078 109.06 247.531 85.1484 266.935C66.0192 282.458 21.1899 310.113 1.16642 322" stroke="black" stroke-width="2"/>
</svg>
