<svg width="79" height="191" viewBox="0 0 79 191" fill="none" xmlns="http://www.w3.org/2000/svg">
<path d="M51.4881 20C51.4881 13.6667 51.9881 1.09999 53.9881 1.49999C56.4881 1.99999 51.4881 20 53.9881 20C54.6548 14 56.2881 2.1 57.4881 2.5C58.9881 3 54.4881 23.5 55.9881 24C57.4881 24.5 59.9881 1.5 59.9881 4C59.9881 6.5 60.4881 24 62.4881 22C64.4881 20 64.4881 0 64.9881 0M44.4881 97.1602C44.4881 91.0928 44.8585 79.0538 46.34 79.437C48.1918 79.916 44.4881 97.1602 46.34 97.1602C46.8338 91.4122 48.0437 80.0118 48.9326 80.395C50.0437 80.874 46.7104 100.513 47.8215 100.992C48.9326 101.471 50.7844 79.437 50.7844 81.832C50.7844 84.2271 51.1548 100.992 52.6363 99.0763C54.1178 97.1602 54.1178 78 54.4881 78M77.9381 44.8036C78.3639 51.3849 78.7652 64.4722 76.9642 64.1713C74.713 63.7952 77.9381 44.8036 75.7205 44.9471C75.5325 51.2202 74.8837 63.6798 73.7924 63.333C72.4282 62.8995 75.0417 41.3388 73.6775 40.9053C72.3133 40.4718 71.642 64.5156 71.4739 61.9178C71.3059 59.3199 69.6859 41.1635 68.0462 43.3566C66.4066 45.5497 67.7512 66.3326 67.3077 66.3613M10.7326 86.165C11.1583 92.7462 11.5597 105.834 9.7587 105.533C7.5075 105.157 10.7326 86.165 8.51498 86.3084C8.32699 92.5816 7.67818 105.041 6.58685 104.694C5.22268 104.261 7.83617 82.7001 6.472 82.2666C5.10784 81.8331 4.43649 105.877 4.26842 103.279C4.10035 100.681 2.48035 82.5249 0.840735 84.7179C-0.798878 86.911 0.545677 107.694 0.10216 107.723M26.0605 134.694C26.4863 141.276 26.8876 154.363 25.0866 154.062C22.8354 153.686 26.0605 134.694 23.8429 134.838C23.6549 141.111 23.0061 153.57 21.9148 153.224C20.5506 152.79 23.1641 131.229 21.7999 130.796C20.4358 130.363 19.7644 154.406 19.5964 151.808C19.4283 149.211 17.8083 131.054 16.1687 133.247C14.5291 135.44 15.8736 156.223 15.4301 156.252M67.7326 116.165C68.1583 122.746 68.5597 135.834 66.7587 135.533C64.5075 135.157 67.7326 116.165 65.515 116.308C65.327 122.582 64.6782 135.041 63.5868 134.694C62.2227 134.261 64.8362 112.7 63.472 112.267C62.1078 111.833 61.4365 135.877 61.2684 133.279C61.1003 130.681 59.4804 112.525 57.8407 114.718C56.2011 116.911 57.5457 137.694 57.1022 137.723M65.4671 169.756C64.8536 176.903 63.0404 191.034 60.6959 190.378C57.7654 189.558 65.4671 169.756 62.4881 169.5C61.1125 176.203 58.0134 189.466 56.6222 188.892C54.8833 188.174 62.2314 165.499 60.4924 164.781C58.7535 164.063 53.5463 189.765 53.7885 186.943C54.0307 184.122 55.1302 164.321 52.5533 166.373C49.9763 168.426 48.0388 190.997 47.443 190.946M26.0605 70.8019C25.8793 63.3571 25.9639 48.5742 27.7526 49.0011C29.9885 49.5348 26.0605 70.8019 28.2821 70.7478C28.7028 63.6804 29.8136 49.6567 30.8914 50.1009C32.2387 50.6562 28.8265 74.8512 30.1738 75.4065C31.521 75.9618 33.0844 48.8713 33.1559 51.8101C33.2275 54.7488 34.1726 75.3092 35.8926 72.9149C37.6126 70.5206 37.0403 47.0107 37.4846 46.9999" stroke="#332623" stroke-width="1.5"/>
</svg>
