<svg width="175" height="138" viewBox="0 0 175 138" fill="none" xmlns="http://www.w3.org/2000/svg">
<path d="M75.9999 20C75.9999 13.6667 76.4999 1.09999 78.4999 1.49999C80.9999 1.99999 75.9999 20 78.4999 20C79.1665 14 80.7999 2.1 81.9999 2.5C83.4999 3 78.9999 23.5 80.4999 24C81.9999 24.5 84.4999 1.5 84.4999 4C84.4999 6.5 84.9999 24 86.9999 22C88.9999 20 88.9999 0 89.4999 0M121 23C121 16.6667 121.5 4.09999 123.5 4.49999C126 4.99999 121 23 123.5 23C124.167 17 125.8 5.1 127 5.5C128.5 6 124 26.5 125.5 27C127 27.5 129.5 4.5 129.5 7C129.5 9.5 130 27 132 25C134 23 134 3 134.5 3M155 32.995C155 28.2466 155.518 18.8247 157.592 19.1246C160.185 19.4995 155 32.995 157.592 32.995C158.284 28.4965 159.978 19.5745 161.222 19.8744C162.778 20.2492 158.111 35.6191 159.667 35.994C161.222 36.3688 163.815 19.1246 163.815 20.999C163.815 22.8734 164.333 35.994 166.407 34.4945C168.481 32.995 168.481 18 169 18M68.9999 97.1602C68.9999 91.0928 69.3702 79.0538 70.8517 79.437C72.7036 79.916 68.9999 97.1602 70.8517 97.1602C71.3455 91.4122 72.5554 80.0118 73.4443 80.395C74.5554 80.874 71.2221 100.513 72.3332 100.992C73.4443 101.471 75.2962 79.437 75.2962 81.832C75.2962 84.2271 75.6665 100.992 77.148 99.0763C78.6295 97.1602 78.6295 78 78.9999 78M102.45 44.8036C102.876 51.3849 103.277 64.4722 101.476 64.1713C99.2247 63.7952 102.45 44.8036 100.232 44.9471C100.044 51.2202 99.3954 63.6798 98.3041 63.333C96.9399 62.8995 99.5534 41.3388 98.1892 40.9053C96.8251 40.4718 96.1537 64.5156 95.9856 61.9178C95.8176 59.3199 94.1976 41.1635 92.558 43.3566C90.9183 45.5497 92.2629 66.3326 91.8194 66.3613M35.2443 86.165C35.6701 92.7462 36.0714 105.834 34.2704 105.533C32.0192 105.157 35.2443 86.165 33.0267 86.3084C32.8387 92.5816 32.1899 105.041 31.0986 104.694C29.7344 104.261 32.3479 82.7001 30.9837 82.2666C29.6196 81.8331 28.9482 105.877 28.7801 103.279C28.6121 100.681 26.9921 82.5249 25.3525 84.7179C23.7128 86.911 25.0574 107.694 24.6139 107.723M11.2443 114.165C11.6701 120.746 12.0714 133.834 10.2704 133.533C8.01922 133.157 11.2443 114.165 9.0267 114.308C8.83871 120.582 8.1899 133.041 7.09857 132.694C5.7344 132.261 8.34789 110.7 6.98372 110.267C5.61956 109.833 4.94821 133.877 4.78014 131.279C4.61207 128.681 2.99207 110.525 1.35245 112.718C-0.287158 114.911 1.0574 135.694 0.613878 135.723M54.2443 111.165C54.6701 117.746 55.0714 130.834 53.2704 130.533C51.0192 130.157 54.2443 111.165 52.0267 111.308C51.8387 117.582 51.1899 130.041 50.0986 129.694C48.7344 129.261 51.3479 107.7 49.9837 107.267C48.6196 106.833 47.9482 130.877 47.7801 128.279C47.6121 125.681 45.9921 107.525 44.3525 109.718C42.7128 111.911 44.0574 132.694 43.6139 132.723M92.2443 116.165C92.6701 122.746 93.0714 135.834 91.2704 135.533C89.0192 135.157 92.2443 116.165 90.0267 116.308C89.8387 122.582 89.1899 135.041 88.0986 134.694C86.7344 134.261 89.3479 112.7 87.9837 112.267C86.6196 111.833 85.9482 135.877 85.7801 133.279C85.6121 130.681 83.9921 112.525 82.3525 114.718C80.7128 116.911 82.0574 137.694 81.6139 137.723M119.024 87.9043C118.41 95.0518 116.597 109.183 114.253 108.527C111.322 107.707 119.024 87.9043 116.045 87.6485C114.669 94.3517 111.57 107.614 110.179 107.04C108.44 106.323 115.788 83.6474 114.049 82.9297C112.31 82.212 107.103 107.913 107.345 105.092C107.588 102.27 108.687 82.4694 106.11 84.522C103.533 86.5745 101.596 109.146 101 109.094M130.416 71.8818C130.285 64.7092 130.489 50.4687 132.363 50.8874C134.705 51.4108 130.416 71.8818 132.748 71.8389C133.245 65.0324 134.52 51.5275 135.648 51.9599C137.057 52.5005 133.287 75.7942 134.697 76.3347C136.106 76.8752 137.958 50.7845 138.01 53.6158C138.062 56.4471 138.893 76.2575 140.717 73.9582C142.54 71.6588 142.124 49.0086 142.59 49M162.416 85.8818C162.285 78.7092 162.489 64.4687 164.363 64.8874C166.705 65.4108 162.416 85.8818 164.748 85.8389C165.245 79.0324 166.52 65.5275 167.648 65.9599C169.057 66.5004 165.287 89.7942 166.697 90.3347C168.106 90.8752 169.958 64.7845 170.01 67.6158C170.062 70.4471 170.893 90.2575 172.717 87.9582C174.54 85.6588 174.124 63.0086 174.59 63M50.5722 70.8019C50.391 63.3571 50.4756 48.5742 52.2643 49.0011C54.5002 49.5348 50.5722 70.8019 52.7938 70.7478C53.2145 63.6804 54.3254 49.6567 55.4032 50.1009C56.7504 50.6562 53.3383 74.8512 54.6855 75.4065C56.0328 75.9618 57.5961 48.8713 57.6676 51.8101C57.7392 54.7488 58.6843 75.3092 60.4043 72.9149C62.1244 70.5206 61.552 47.0107 61.9963 46.9999" stroke="#332623" stroke-width="1.5"/>
</svg>
