<svg width="341" height="179" viewBox="0 0 341 179" fill="none" xmlns="http://www.w3.org/2000/svg">
<path d="M341 178.171C335.604 160.22 319.492 105.593 312.091 96.9759C302.84 86.2051 277.979 38.979 241.554 19.0944C205.129 -0.79022 179.689 -12.3896 108.573 21.58C51.6808 48.7557 36.0396 137.85 28.3306 179M323.655 166.572C321.342 153.592 313.248 122.992 299.371 104.433C282.026 81.2339 264.681 46.4358 249.07 42.2932C233.459 38.1505 204.55 29.0367 199.925 24.0656C195.3 19.0944 154.249 3.35241 119.559 8.32357C84.8681 13.2947 53.0684 61.3493 43.2394 77.0913C35.3762 89.6849 25.4397 148.621 14.4544 177.343M310.357 166.572C309.586 160.496 305.269 143.208 294.168 122.66C280.292 96.9759 287.23 101.119 279.713 89.5192C272.197 77.9198 256.008 58.8637 241.554 50.5784C227.099 42.2932 188.94 2.52389 139.795 13.2947C90.6498 24.0656 68.101 24.0656 46.7085 58.0352C29.5945 85.2108 13.1053 148.897 -7.24321e-08 177.343" stroke="black" stroke-width="2"/>
</svg>
